<svg xmlns="http://www.w3.org/2000/svg" fill="none" viewBox="0 0 1500 900"><defs><linearGradient id="g" x1="0%" x2="100%" y1="0%" y2="100%"><stop offset="0%" style="stop-color:#9ecbeb"/><stop offset="100%" style="stop-color:#7ba5c9"/></linearGradient><linearGradient id="h" x1="0%" x2="100%" y1="0%" y2="100%"><stop offset="0%" style="stop-color:#6b95b9"/><stop offset="100%" style="stop-color:#5a84a8"/></linearGradient><linearGradient id="l" x1="0" x2=".5" y1=".5" y2=".5"><stop offset="0%" style="stop-color:#e8dcc4;stop-opacity:0"/><stop offset="46%" style="stop-color:#e8dcc4"/></linearGradient><linearGradient id="m" x1="1" x2=".5" y1=".5" y2=".5"><stop offset="0%" style="stop-color:#e8dcc4;stop-opacity:0"/><stop offset="46%" style="stop-color:#e8dcc4"/></linearGradient><linearGradient id="n" x1=".5" x2=".5" y1="0" y2=".5"><stop offset="0%" style="stop-color:#e8dcc4;stop-opacity:0"/><stop offset="46%" style="stop-color:#e8dcc4"/></linearGradient><linearGradient id="o" x1=".5" x2=".5" y1="1" y2=".5"><stop offset="0%" style="stop-color:#e8dcc4;stop-opacity:0"/><stop offset="46%" style="stop-color:#e8dcc4"/></linearGradient><linearGradient id="r" x1="0" x2=".5" y1=".5" y2=".5"><stop offset="0%" style="stop-color:#9b8fcf;stop-opacity:0"/><stop offset="46%" style="stop-color:#b8a8df"/></linearGradient><linearGradient id="s" x1="1" x2=".5" y1=".5" y2=".5"><stop offset="0%" style="stop-color:#9b8fcf;stop-opacity:0"/><stop offset="46%" style="stop-color:#b8a8df"/></linearGradient><linearGradient id="t" x1=".5" x2=".5" y1="0" y2=".5"><stop offset="0%" style="stop-color:#9b8fcf;stop-opacity:0"/><stop offset="46%" style="stop-color:#b8a8df"/></linearGradient><linearGradient id="u" x1=".5" x2=".5" y1="1" y2=".5"><stop offset="0%" style="stop-color:#9b8fcf;stop-opacity:0"/><stop offset="46%" style="stop-color:#b8a8df"/></linearGradient><marker id="p" markerHeight="12" markerUnits="userSpaceOnUse" markerWidth="12" orient="auto" refX="10" refY="6"><path stroke="#b8a8df" stroke-linecap="round" stroke-linejoin="round" stroke-width="2" d="m2 2 8 4-8 4"/></marker><marker id="v" markerHeight="12" markerUnits="userSpaceOnUse" markerWidth="12" orient="auto" refX="10" refY="6"><path stroke="#e8dcc4" stroke-linecap="round" stroke-linejoin="round" stroke-width="2" d="m2 2 8 4-8 4"/></marker><marker id="q" markerHeight="12" markerUnits="userSpaceOnUse" markerWidth="12" orient="auto" refX="10" refY="6"><path stroke="#7ba5c9" stroke-linecap="round" stroke-linejoin="round" stroke-width="2" d="m2 2 8 4-8 4"/></marker><marker id="c" markerHeight="12" markerUnits="userSpaceOnUse" markerWidth="12" orient="auto" refX="10" refY="6"><path stroke="#f5d76e" stroke-linecap="round" stroke-linejoin="round" stroke-width="2" d="m2 2 8 4-8 4"/></marker><marker id="i" markerHeight="12" markerUnits="userSpaceOnUse" markerWidth="12" orient="auto" refX="10" refY="6"><path stroke="#d4a830" stroke-linecap="round" stroke-linejoin="round" stroke-width="2" d="m2 2 8 4-8 4"/></marker><radialGradient id="a" cx="50%" cy="42%" r="65%"><stop offset="0%" style="stop-color:#0d1f3c"/><stop offset="100%" style="stop-color:#050a14"/></radialGradient><radialGradient id="e" cx="50%" cy="30%" r="70%"><stop offset="0%" style="stop-color:#1a3a5c"/><stop offset="100%" style="stop-color:#0d1f3c"/></radialGradient><radialGradient id="k" cx="50%" cy="50%" r="50%"><stop offset="0%" style="stop-color:#e8dcc4;stop-opacity:.28"/><stop offset="100%" style="stop-color:#e8dcc4;stop-opacity:0"/></radialGradient><radialGradient id="j" cx="50%" cy="60%" r="50%"><stop offset="0%" style="stop-color:#d4a830;stop-opacity:.12"/><stop offset="60%" style="stop-color:#d4a830;stop-opacity:.04"/><stop offset="100%" style="stop-color:#d4a830;stop-opacity:0"/></radialGradient><filter id="b" width="140%" height="140%" x="-20%" y="-20%"><feDropShadow dx="0" dy="4" flood-color="#000" flood-opacity=".45" stdDeviation="10"/></filter><filter id="f" width="200%" height="200%" x="-50%" y="-50%"><feGaussianBlur result="blur" stdDeviation="3"/><feMerge><feMergeNode in="blur"/><feMergeNode in="SourceGraphic"/></feMerge></filter><filter id="d" width="200%" height="200%" x="-50%" y="-50%"><feGaussianBlur result="blur" stdDeviation="12"/><feColorMatrix in="blur" values="1 0 0 0 0 0 1 0 0 0 0 0 1 0 0 0 0 0 0.3 0"/><feMerge><feMergeNode/><feMergeNode in="SourceGraphic"/></feMerge></filter></defs><path fill="url(#a)" d="M0 0h1500v900H0z"/><g transform="translate(-53)"><g fill="#e8dcc4"><path d="m160 85 1.2 3h3.3l-2.7 2.5L163 94l-3-2.5-3 2.5 1.2-3.5-2.7-2.5h3.3z" opacity=".26"/><path d="m1340 110 1.2 3h3.3l-2.7 2.5 1.2 3.5-3-2.5-3 2.5 1.2-3.5-2.7-2.5h3.3z" opacity=".22"/><path d="m80 520 1.2 3h3.3l-2.7 2.5L83 529l-3-2.5-3 2.5 1.2-3.5-2.7-2.5h3.3z" opacity=".2"/><path d="m1440 260 1.2 3h3.3l-2.7 2.5 1.2 3.5-3-2.5-3 2.5 1.2-3.5-2.7-2.5h3.3z" opacity=".24"/><path d="m420 50 1.2 3h3.3l-2.7 2.5L423 59l-3-2.5-3 2.5 1.2-3.5-2.7-2.5h3.3z" opacity=".25"/><path d="m1460 700 1.2 3h3.3l-2.7 2.5 1.2 3.5-3-2.5-3 2.5 1.2-3.5-2.7-2.5h3.3z" opacity=".18"/><path d="m50 780 1.2 3h3.3l-2.7 2.5L53 789l-3-2.5-3 2.5 1.2-3.5-2.7-2.5h3.3z" opacity=".16"/><path d="m1080 55 1.2 3h3.3l-2.7 2.5 1.2 3.5-3-2.5-3 2.5 1.2-3.5-2.7-2.5h3.3z" opacity=".22"/><path d="m150 340 1 2h3l-2.5 2 1 3-2.5-2-2.5 2 1-3-2.5-2h3z" opacity=".16"/><path d="m1390 470 1 2h3l-2.5 2 1 3-2.5-2-2.5 2 1-3-2.5-2h3z" opacity=".18"/><path d="m320 860 1 2h3l-2.5 2 1 3-2.5-2-2.5 2 1-3-2.5-2h3z" opacity=".12"/><path d="m1200 860 1 2h3l-2.5 2 1 3-2.5-2-2.5 2 1-3-2.5-2h3z" opacity=".14"/><path d="m680 35 1 2h3l-2.5 2 1 3-2.5-2-2.5 2 1-3-2.5-2h3z" opacity=".2"/><path d="m1100 850 1 2h3l-2.5 2 1 3-2.5-2-2.5 2 1-3-2.5-2h3z" opacity=".12"/><circle cx="130" cy="140" r="1.2" opacity=".16"/><circle cx="1370" cy="75" r="1" opacity=".14"/><circle cx="75" cy="420" r="1.3" opacity=".11"/><circle cx="1430" cy="380" r="1.1" opacity=".13"/><circle cx="200" cy="680" r="1" opacity=".09"/><circle cx="1320" cy="620" r="1.2" opacity=".12"/><circle cx="370" cy="160" r=".9" opacity=".14"/><circle cx="1150" cy="130" r="1.1" opacity=".13"/><circle cx="500" cy="870" r="1" opacity=".1"/><circle cx="980" cy="880" r="1.2" opacity=".11"/><circle cx="620" cy="60" r="1.1" opacity=".14"/><circle cx="780" cy="48" r="1" opacity=".12"/><circle cx="25" cy="600" r="1" opacity=".08"/><circle cx="1475" cy="160" r="1.2" opacity=".13"/><circle cx="240" cy="240" r=".8" opacity=".11"/><circle cx="1280" cy="180" r="1" opacity=".1"/><circle cx="460" cy="35" r="1" opacity=".14"/><circle cx="1040" cy="30" r="1.2" opacity=".12"/><circle cx="305" cy="550" r=".9" opacity=".09"/><circle cx="1195" cy="540" r="1.1" opacity=".11"/><circle cx="1450" cy="840" r="1" opacity=".1"/></g><text x="750" y="72" fill="#f5f0e6" font-family="'Cormorant Garamond', Georgia, serif" font-size="56" font-weight="500" letter-spacing=".05em" text-anchor="middle">The Conversion Mechanism</text><text x="750" y="108" fill="#e8dcc4" fill-opacity=".5" font-family="'Inter', Arial, sans-serif" font-size="22" font-weight="400" text-anchor="middle">Every POLAR in circulation required someone to burn pETH to create it</text><g transform="translate(210 150)"><rect width="150" height="90" fill="#0d1f3c" stroke="#e8dcc4" stroke-opacity=".1" filter="url(#b)" rx="16"/><path fill="#e8dcc4" fill-opacity=".6" d="m76.035 8.827.145.083.134.072c.574.355.836.907.986 1.538h.222q2.674-.008 5.35-.01l2.586-.006a1044 1044 0 0 1 3.448-.006 242 242 0 0 1 1.536-.003h.562l.166-.002c.222.002.385.014.584.116.146.166.143.324.15.539-.069.222-.204.295-.394.422-.21.036-.21.036-.445.038l-.267.004h-.287l-.295.004-.774.006q-.396.002-.791.007-.776.008-1.551.011l.042.11q.03.076.059.156l.068.178 1.84 4.841.083.22 1.286 3.382c.202.532.405 1.063.618 1.591l.278.7.131.324c.455 1.096.51 2.141.075 3.268-.266.637-.582 1.238-1.05 1.75l-.17.19c-.662.7-1.437 1.175-2.35 1.49l-.196.068c-1.468.42-3.057.17-4.38-.548-.35-.2-.657-.437-.954-.71l-.16-.14a5.43 5.43 0 0 1-1.695-3.727c-.006-.704.248-1.293.512-1.934l.152-.384q.16-.407.324-.814c.254-.636.494-1.277.736-1.917l.42-1.106 1.105-2.907q.775-2.04 1.546-4.081l-8.12-.07-.21.63c-.105.177-.105.177-.21.306l-.105.133c-.105.121-.105.121-.215.214-.13.152-.127.234-.128.432l-.003.195v.214l-.001.226q-.003.37-.004.74l-.004.512-.007 1.35-.008 1.376q-.009 1.35-.015 2.702l.232-.006c.294.007.47.078.678.286q.01.203.008.404v1.709l-.001.877-.003 3.55-.004 3.89.166.065c.161.066.306.137.456.224l.595.341.132.076c.373.196.776.177 1.171.064l.21-.07-.012-.149c-.02-.42.01-.703.238-1.058.336-.332.743-.461 1.191-.56l.158-.036c.497-.106.965-.17 1.457-.013.425.307.61.574.742 1.09l.035.138.111.448.037.15a115 115 0 0 1 .307 1.311l.393 1.7a193 193 0 0 1 .298 1.288c.39 1.654.39 1.654.08 2.236-.259.398-.71.549-1.15.65l-.162.033-.168.035c-.58.117-1.07.202-1.595-.123l-.136-.096c-.197-.06-.343-.026-.527.06-.198.195-.181.466-.211.73-.069.416-.272.679-.587.947-.241.12-.442.158-.709.179l.017.21c-.002.327-.105.577-.297.84-.384.357-.688.5-1.216.503l-.238.003a1.5 1.5 0 0 1-.576-.156l-.09.115c-.318.388-.568.62-1.088.677-.524.021-.912-.052-1.314-.399a5 5 0 0 1-.238-.253l-.092.1-.127.132-.123.13c-.326.282-.623.37-1.05.373l-.244.007c-.733-.12-1.23-.785-1.724-1.293l-.477-.485-.116-.118a12 12 0 0 0-.73-.675c-.356-.317-.686-.663-1.022-1.002l-.805-.809a2.1 2.1 0 0 0-.46.284c-.347.277-.726.24-1.15.206-.746-.11-1.471-.267-1.964-.88-.237-.867.045-1.764.243-2.613l.097-.42.203-.876q.13-.56.257-1.12a198 198 0 0 1 .295-1.28l.134-.577c.02-.084.02-.084.038-.17.102-.422.262-.853.618-1.123.644-.383 1.417-.153 2.097.016.342.092.582.196.852.433l.28.56 2.73.07-.003-.96q-.006-1.569-.008-3.136l-.005-1.902a565 565 0 0 1-.006-2.535 131 131 0 0 1-.003-1.13v-.647c.025-.19.025-.19.111-.318.155-.102.268-.117.452-.13l.172-.014.13-.008q.003-1.492-.002-2.983-.003-.693-.001-1.385.001-.669-.003-1.337v-.51q.002-.357-.002-.715l.003-.212c-.008-.456-.112-.683-.44-1.004a1.2 1.2 0 0 1-.286-.455l-.065-.157c-.044-.132-.044-.132-.044-.272l-8.12.07c1.016 2.72 1.016 2.72 2.051 5.432a581 581 0 0 1 1.732 4.551q.234.62.477 1.234l.098.249q.091.233.186.464c.233.594.319 1.08.216 1.72l-.022.137a5.5 5.5 0 0 1-1.378 2.803l-.14.16c-.92.99-2.265 1.629-3.616 1.684-1.546.023-2.98-.28-4.154-1.354l-.19-.17c-1.023-.966-1.67-2.29-1.745-3.704-.011-.863.359-1.635.675-2.422q.098-.247.193-.496.194-.5.392-1 .348-.886.683-1.776l.337-.885.877-2.305a1665 1665 0 0 1 1.648-4.322l-.166-.002a574 574 0 0 1-2.339-.028l-1.059-.012-.645-.009a.9.9 0 0 1-.481-.159 1.06 1.06 0 0 1-.07-.7c.176-.186.28-.21.537-.236h.496l.59.002h.422q.573 0 1.147.003l1.198.001 2.27.005 2.584.004q2.658.004 5.316.011l.042-.146.057-.192.055-.19c.177-.545.593-.868 1.076-1.139l.17-.083.16-.08c.592-.188 1.38-.134 1.935.137m-2.261 1.374c-.24.377-.284.685-.225 1.122.086.37.237.628.55.85.38.208.672.3 1.101.237.435-.14.728-.393.98-.77.176-.353.16-.674.07-1.05-.154-.39-.4-.632-.756-.845-.661-.277-1.255-.022-1.72.456"/><text x="75" y="74" fill="#e8dcc4" fill-opacity=".9" font-family="'Inter', Arial, sans-serif" font-size="18" font-weight="500" text-anchor="middle">Arbitrageur</text></g><path stroke="#f5d76e" stroke-width="2" marker-end="url(#c)" d="M285 240v88" opacity=".7"/><rect width="52" height="28" x="259" y="270" fill="#0a1628" stroke="#f5d76e" stroke-opacity=".15" rx="14"/><text x="285" y="289" fill="#f5d76e" fill-opacity=".8" font-family="'Inter', Arial, sans-serif" font-size="18" font-weight="500" text-anchor="middle">BUY</text><g filter="url(#d)" transform="translate(285 390)"><circle r="62" stroke="#7ba5c9" stroke-width=".5" opacity=".12"/><circle r="58" stroke="#9ecbeb" opacity=".2"/><circle r="50" fill="url(#e)" stroke="#7ba5c9" stroke-width="1.5" filter="url(#b)"/><path fill="#9ecbeb" fill-opacity=".8" d="m0-28 1.4 5h5.2l-4.2 3.6L4-14l-4-4-4 4 1.6-5.4-4.2-3.6h5.2z" filter="url(#f)"/><path fill="url(#g)" d="M0-18 14 0 0 7l-14-7z" transform="translate(0 8)"/><path fill="url(#h)" d="m0 7 14-7L0 20-14 0z" transform="translate(0 8)"/><path fill="#b8d4f0" d="M0-10 6 5 0 3l-6 2z" opacity=".3"/></g><text x="285" y="472" fill="#e8dcc4" font-family="'Cormorant Garamond', Georgia, serif" font-size="30" font-weight="500" text-anchor="middle">pETH</text><path stroke="#f5d76e" stroke-width="2" marker-end="url(#c)" d="M285 490v75" opacity=".5"/><g transform="translate(170 565)"><rect width="230" height="68" fill="#1a1f0f" stroke="#f5d76e" stroke-opacity=".2" filter="url(#b)" rx="16"/><path fill="#e8dcc4" d="m26 23 8 14h-5v8h-6v-8h-5Z" opacity=".6"/><text x="44" y="36" fill="#e8dcc4" fill-opacity=".9" dominant-baseline="middle" font-family="'Inter', Arial, sans-serif" font-size="20" font-weight="500">Market Price Rises</text></g><path stroke="#d4a830" stroke-width="2" marker-end="url(#i)" d="M350 390h270" opacity=".7"/><rect width="70" height="28" x="450" y="374" fill="#0a1628" stroke="#d4a830" stroke-opacity=".15" rx="14"/><text x="485" y="393" fill="#d4a830" fill-opacity=".8" font-family="'Inter', Arial, sans-serif" font-size="18" font-weight="500" text-anchor="middle">BURN</text><rect width="340" height="200" x="630" y="290" fill="#0d1f3c" stroke="#e8dcc4" stroke-opacity=".1" filter="url(#b)" rx="24"/><rect width="332" height="192" x="634" y="294" stroke="#e8dcc4" stroke-opacity=".03" rx="20"/><ellipse cx="800" cy="370" fill="url(#j)" rx="110" ry="70"/><g transform="translate(800 370)"><circle r="45" fill="url(#k)"/><path fill="url(#l)" d="m-45 0 40.5-4L0 0l-4.5 4Z"/><path fill="url(#m)" d="M45 0 4.5-4 0 0l4.5 4Z"/><path fill="url(#n)" d="M0-45 4-4.5 0 0l-4-4.5Z"/><path fill="url(#o)" d="M0 45 4 4.5 0 0l-4 4.5Z"/><circle r="5" fill="#e8dcc4" filter="url(#f)"/></g><text x="800" y="445" fill="#e8dcc4" fill-opacity=".9" font-family="'Inter', Arial, sans-serif" font-size="22" font-weight="600" letter-spacing=".2em" text-anchor="middle">CONVERSION</text><path stroke="#b8a8df" stroke-width="2" marker-end="url(#p)" d="m970 345 265-128" opacity=".6"/><path stroke="#f5d76e" stroke-width="2" marker-end="url(#c)" d="M970 390h225" opacity=".5"/><path stroke="#7ba5c9" stroke-width="2" marker-end="url(#q)" d="m970 435 265 130" opacity=".6"/><g filter="url(#d)" transform="translate(1280 195)"><circle r="62" stroke="#9b8fcf" stroke-width=".5" opacity=".12"/><circle r="58" stroke="#9b8fcf" opacity=".2"/><circle r="50" fill="url(#e)" stroke="#9b8fcf" stroke-width="1.5" filter="url(#b)"/><path fill="url(#r)" d="m-28 0 25-2.2L0 0l-3 2.2Z"/><path fill="url(#s)" d="M28 0 3-2.2 0 0l3 2.2Z"/><path fill="url(#t)" d="M0-28 2.2-3 0 0l-2.2-3Z"/><path fill="url(#u)" d="M0 28 2.2 3 0 0l-2.2 3Z"/><circle r="3" fill="#b8a8df"/></g><text x="1280" y="278" fill="#e8dcc4" font-family="'Cormorant Garamond', Georgia, serif" font-size="30" font-weight="500" text-anchor="middle">POLAR</text><text x="1280" y="302" fill="#b8a8df" fill-opacity=".6" font-family="'Inter', Arial, sans-serif" font-size="18" font-weight="400" text-anchor="middle">Minted</text><g transform="translate(1205 356)"><rect width="220" height="68" fill="#1a1f0f" stroke="#f5d76e" stroke-opacity=".2" filter="url(#b)" rx="16"/><path fill="#e8dcc4" d="m26 23 8 14h-5v8h-6v-8h-5Z" opacity=".6"/><text x="44" y="36" fill="#e8dcc4" fill-opacity=".9" dominant-baseline="middle" font-family="'Inter', Arial, sans-serif" font-size="20" font-weight="500">Floor Price Rises</text></g><g transform="translate(1137 565)"><rect width="196" height="68" fill="#0d1f3c" stroke="#7ba5c9" stroke-opacity=".1" filter="url(#b)" rx="16"/><path fill="#7ba5c9" d="m28 20 10 14-10 5-10-5z" opacity=".85"/><path fill="#5a84a8" d="m28 39 10-5-10 14-10-14z" opacity=".75"/><path fill="#9ecbeb" d="m28 20 4 12-4-2-4 2z" opacity=".3"/><text x="52" y="34" fill="#9ecbeb" fill-opacity=".9" dominant-baseline="middle" font-family="'Inter', Arial, sans-serif" font-size="20" font-weight="500">ETH Released</text></g><path stroke="#7ba5c9" stroke-width="1.5" marker-end="url(#q)" d="m1285 633 25 85" opacity=".5"/><g transform="translate(1200 726)"><rect width="220" height="68" fill="#0d1f3c" stroke="#7ba5c9" stroke-opacity=".12" filter="url(#b)" rx="14"/><path fill="#9ecbeb" d="M36.2 30h-6.4v-2.4L25 34l4.8 6.4V38h6.4Z" opacity=".5"/><text x="57" y="28" fill="#9ecbeb" fill-opacity=".9" font-family="'Inter', Arial, sans-serif" font-size="19" font-weight="500">Converter Rebate</text><text x="57" y="50" fill="#9ecbeb" fill-opacity=".4" font-family="'Inter', Arial, sans-serif" font-size="18" font-weight="400">Direct ETH return</text></g><path stroke="#f5d76e" stroke-width="2" marker-end="url(#c)" d="M1195 633 997 760" opacity=".7"/><rect width="52" height="28" x="1060" y="683" fill="#0a1628" stroke="#f5d76e" stroke-opacity=".15" rx="14"/><text x="1086" y="702" fill="#f5d76e" fill-opacity=".8" font-family="'Inter', Arial, sans-serif" font-size="18" font-weight="500" text-anchor="middle">BUY</text><g filter="url(#d)" transform="translate(935 760)"><circle r="62" stroke="#7ba5c9" stroke-width=".5" opacity=".12"/><circle r="58" stroke="#9ecbeb" opacity=".2"/><circle r="50" fill="url(#e)" stroke="#7ba5c9" stroke-width="1.5" filter="url(#b)"/><path fill="#9ecbeb" fill-opacity=".8" d="m0-28 1.4 5h5.2l-4.2 3.6L4-14l-4-4-4 4 1.6-5.4-4.2-3.6h5.2z" filter="url(#f)"/><path fill="url(#g)" d="M0-18 14 0 0 7l-14-7z" transform="translate(0 8)"/><path fill="url(#h)" d="m0 7 14-7L0 20-14 0z" transform="translate(0 8)"/><path fill="#b8d4f0" d="M0-10 6 5 0 3l-6 2z" opacity=".3"/></g><text x="935" y="842" fill="#e8dcc4" font-family="'Cormorant Garamond', Georgia, serif" font-size="30" font-weight="500" text-anchor="middle">pETH</text><path stroke="#e8dcc4" stroke-width="2" marker-end="url(#v)" d="m873 760-118-24" opacity=".5"/><path stroke="#f5d76e" stroke-width="2" marker-end="url(#c)" d="m873 760-118 64" opacity=".5"/><g transform="translate(525 700)"><rect width="230" height="72" fill="#0d1f3c" stroke="#e8dcc4" stroke-opacity=".12" filter="url(#b)" rx="14"/><g transform="translate(33 36)"><path stroke="#e8dcc4" stroke-linecap="round" stroke-width="1.5" d="M0-8v8m0 0-6 8m6-8 6 8" opacity=".6"/><circle cy="-8" r="2" fill="#e8dcc4" opacity=".6"/><circle cx="-6" cy="8" r="2" fill="#e8dcc4" opacity=".6"/><circle cx="6" cy="8" r="2" fill="#e8dcc4" opacity=".6"/></g><text x="57" y="30" fill="#e8dcc4" fill-opacity=".9" font-family="'Inter', Arial, sans-serif" font-size="19" font-weight="500">Fee Router</text><text x="57" y="52" fill="#e8dcc4" fill-opacity=".4" font-family="'Inter', Arial, sans-serif" font-size="18" font-weight="400">pETH distribution</text></g><g transform="translate(525 788)"><rect width="230" height="68" fill="#1a1f0f" stroke="#f5d76e" stroke-opacity=".2" filter="url(#b)" rx="16"/><path fill="#e8dcc4" d="m26 23 8 14h-5v8h-6v-8h-5Z" opacity=".6"/><text x="44" y="36" fill="#e8dcc4" fill-opacity=".9" dominant-baseline="middle" font-family="'Inter', Arial, sans-serif" font-size="20" font-weight="500">Market Price Rises</text></g></g></svg>